<?xml version="1.0" encoding="UTF-8" standalone="no"?>
<!DOCTYPE svg  PUBLIC '-//W3C//DTD SVG 1.1//EN'  'http://www.w3.org/Graphics/SVG/1.1/DTD/svg11.dtd'>
<svg id="svg2" xmlns:rdf="http://www.w3.org/1999/02/22-rdf-syntax-ns#" xmlns="http://www.w3.org/2000/svg" enable-background="new 0 0 256 256" xml:space="preserve" height="256px" viewBox="0 0 256 256" width="256px" version="1.1" xmlns:xlink="http://www.w3.org/1999/xlink" y="0px" x="0px" xmlns:cc="http://creativecommons.org/ns#" xmlns:dc="http://purl.org/dc/elements/1.1/">
<title id="title3116">HAL9000</title>
<g id="layer1" transform="translate(0 -796.36)">
	<g id="g4726" transform="translate(-727,-21)">
		<path id="path4724" d="m982.04 945.36c0.007 70.162-56.866 127.05-127.03 127.05s-127.05-56.866-127.05-127.03v-0.025c-0.007-70.162 56.866-127.05 127.03-127.05s127.05 56.866 127.05 127.03v0.04z" fill="#5D5F5F"/>
			<radialGradient id="path4642_1_" gradientUnits="userSpaceOnUse" cy="641.21" cx="1551.8" gradientTransform="matrix(.2935 .014 .0282 -.5912 382.48 1179.8)" r="214.64">
			<stop stop-color="#F5F4F1" offset="0"/>
			<stop stop-color="#F5F4F1" stop-opacity="0" offset="1"/>
		</radialGradient>
		<path id="path4642" d="m982.04 945.36c0.007 70.162-56.866 127.05-127.03 127.05s-127.05-56.866-127.05-127.03v-0.025c-0.007-70.162 56.866-127.05 127.03-127.05s127.05 56.866 127.05 127.03v0.04z" fill="url(#path4642_1_)"/>
			<radialGradient id="path4670_1_" gradientUnits="userSpaceOnUse" cy="938.14" cx="3143.4" gradientTransform="matrix(.1118 .1235 .4387 -.3973 186.97 848.51)" r="214.64">
			<stop stop-color="#F5F4F1" offset="0"/>
			<stop stop-color="#F5F4F1" stop-opacity="0" offset="1"/>
		</radialGradient>
		<path id="path4670" d="m982.04 945.36c0.007 70.162-56.866 127.05-127.03 127.05s-127.05-56.866-127.05-127.03v-0.025c-0.007-70.162 56.866-127.05 127.03-127.05s127.05 56.866 127.05 127.03v0.04z" fill="url(#path4670_1_)"/>
			<radialGradient id="path4674_1_" gradientUnits="userSpaceOnUse" cy="251.52" cx="183.1" gradientTransform="matrix(.1432 -.1435 -.4268 -.4259 840.12 998.25)" r="214.64">
			<stop stop-color="#F5F4F1" offset="0"/>
			<stop stop-color="#F5F4F1" stop-opacity="0" offset="1"/>
		</radialGradient>
		<path id="path4674" d="m982.04 945.36c0.007 70.162-56.866 127.05-127.03 127.05s-127.05-56.866-127.05-127.03v-0.025c-0.007-70.162 56.866-127.05 127.03-127.05s127.05 56.866 127.05 127.03v0.04z" fill="url(#path4674_1_)"/>
			<radialGradient id="path4678_1_" gradientUnits="userSpaceOnUse" cy="840.96" cx="1122.1" gradientTransform="matrix(.3299 .6645 .6009 -.2983 -134.06 496.59)" r="214.64">
			<stop stop-color="#0E191C" offset="0"/>
			<stop stop-color="#0E191C" stop-opacity="0" offset="1"/>
		</radialGradient>
		<path id="path4678" d="m982.04 945.36c0.007 70.162-56.866 127.05-127.03 127.05s-127.05-56.866-127.05-127.03v-0.025c-0.007-70.162 56.866-127.05 127.03-127.05s127.05 56.866 127.05 127.03v0.04z" fill="url(#path4678_1_)"/>
			<radialGradient id="path4688_1_" gradientUnits="userSpaceOnUse" cy="199.49" cx="1388.3" gradientTransform="matrix(.3517 -.0116 -.0196 -.5915 374.7 1203.5)" r="214.57">
			<stop stop-color="#424A4B" offset="0"/>
			<stop stop-color="#424A4B" stop-opacity="0" offset="1"/>
		</radialGradient>
		<path id="path4688" d="m982.04 945.36c0.007 70.162-56.866 127.05-127.03 127.05s-127.05-56.866-127.05-127.03v-0.025c-0.007-70.162 56.866-127.05 127.03-127.05s127.05 56.866 127.05 127.03v0.04z" fill="url(#path4688_1_)"/>
			<radialGradient id="path4706_1_" gradientUnits="userSpaceOnUse" cy="1219.4" cx="1511.7" gradientTransform="matrix(-.1714 .3664 .6074 .2841 488.92 80.625)" r="214.64">
			<stop stop-color="#0A1314" offset="0"/>
			<stop stop-color="#0A1314" stop-opacity="0" offset="1"/>
		</radialGradient>
		<path id="path4706" d="m982.04 945.36c0.007 70.162-56.866 127.05-127.03 127.05s-127.05-56.866-127.05-127.03v-0.025c-0.007-70.162 56.866-127.05 127.03-127.05s127.05 56.866 127.05 127.03v0.04z" fill="url(#path4706_1_)"/>
	</g>
	<g id="g4924">
		<path id="path3766" d="m249.38 924.36c0.007 67.038-54.333 121.39-121.37 121.4-67.036 0-121.39-54.38-121.39-121.41v-0.024c-0.01-67.05 54.33-121.4 121.37-121.4 67.038-0.006 121.39 54.333 121.4 121.37-0.01 0.01-0.01 0.01-0.01 0.02z" fill="#706062"/>
		<path id="path4556" d="m249.38 924.36c0.007 67.038-54.333 121.39-121.37 121.4-67.036 0-121.39-54.38-121.39-121.41v-0.024c-0.01-67.05 54.33-121.4 121.37-121.4 67.038-0.006 121.39 54.333 121.4 121.37-0.01 0.01-0.01 0.01-0.01 0.02z" fill="#767676"/>
			<radialGradient id="path4544_1_" gradientUnits="userSpaceOnUse" cy="1199.7" cx="1038.1" gradientTransform="matrix(-.0065 .4072 .5588 .0089 -421.14 487.56)" r="214.64">
			<stop stop-color="#444544" offset="0"/>
			<stop stop-color="#706062" stop-opacity="0" offset="1"/>
		</radialGradient>
		<path id="path4544" d="m249.38 924.36c0.007 67.038-54.333 121.39-121.37 121.4-67.036 0-121.39-54.38-121.39-121.41v-0.024c-0.01-67.05 54.33-121.4 121.37-121.4 67.038-0.006 121.39 54.333 121.4 121.37-0.01 0.01-0.01 0.01-0.01 0.02z" fill="url(#path4544_1_)"/>
			<radialGradient id="path4560_1_" gradientUnits="userSpaceOnUse" cy="2319.5" cx="1089.5" gradientTransform="matrix(-.0736 .0829 .1467 .1302 -40.564 604.9)" r="214.64">
			<stop stop-color="#CFCDC7" offset="0"/>
			<stop stop-color="#CFCDC7" stop-opacity="0" offset="1"/>
		</radialGradient>
		<path id="path4560" d="m249.38 924.36c0.007 67.038-54.333 121.39-121.37 121.4-67.036 0-121.39-54.38-121.39-121.41v-0.024c-0.01-67.05 54.33-121.4 121.37-121.4 67.038-0.006 121.39 54.333 121.4 121.37-0.01 0.01-0.01 0.01-0.01 0.02z" fill="url(#path4560_1_)"/>
			<radialGradient id="path4570_1_" gradientUnits="userSpaceOnUse" cy="1894.1" cx="-903.78" gradientTransform="matrix(-.1583 .0052 .007 .2138 -24.318 646.64)" r="214.65">
			<stop stop-color="#E0D8D4" offset="0"/>
			<stop stop-color="#E0D8D4" stop-opacity=".4549" offset=".6765"/>
			<stop stop-color="#E0D8D4" stop-opacity="0" offset="1"/>
		</radialGradient>
		<path id="path4570" d="m249.38 924.36c0.007 67.038-54.333 121.39-121.37 121.4-67.036 0-121.39-54.38-121.39-121.41v-0.024c-0.01-67.05 54.33-121.4 121.37-121.4 67.038-0.006 121.39 54.333 121.4 121.37-0.01 0.01-0.01 0.01-0.01 0.02z" fill="url(#path4570_1_)"/>
			<radialGradient id="path4582_1_" gradientUnits="userSpaceOnUse" cy="639.23" cx="5581.4" gradientTransform="matrix(.0369 .0445 .2905 -.2408 -355.29 900.17)" r="214.64">
			<stop stop-color="#B1ABA9" offset="0"/>
			<stop stop-color="#B1ABA9" stop-opacity="0" offset="1"/>
		</radialGradient>
		<path id="path4582" d="m249.38 924.36c0.007 67.038-54.333 121.39-121.37 121.4-67.036 0-121.39-54.38-121.39-121.41v-0.024c-0.01-67.05 54.33-121.4 121.37-121.4 67.038-0.006 121.39 54.333 121.4 121.37-0.01 0.01-0.01 0.01-0.01 0.02z" fill="url(#path4582_1_)"/>
			<radialGradient id="path4592_1_" gradientUnits="userSpaceOnUse" cy="1061.8" cx="675.57" gradientTransform="matrix(.0193 .3913 .7443 -.0367 -791.4 703.5)" r="214.64">
			<stop stop-color="#473E3E" offset="0"/>
			<stop stop-color="#473E3E" stop-opacity="0" offset="1"/>
		</radialGradient>
		<path id="path4592" d="m249.38 924.36c0.007 67.038-54.333 121.39-121.37 121.4-67.036 0-121.39-54.38-121.39-121.41v-0.024c-0.01-67.05 54.33-121.4 121.37-121.4 67.038-0.006 121.39 54.333 121.4 121.37-0.01 0.01-0.01 0.01-0.01 0.02z" fill="url(#path4592_1_)"/>
			<radialGradient id="path4602_1_" gradientUnits="userSpaceOnUse" cy="596.01" cx="860.74" gradientTransform="matrix(.2842 .0163 .0324 -.5646 -131.43 1133.3)" r="214.64">
			<stop stop-color="#B9B5B4" offset="0"/>
			<stop stop-color="#9D9290" stop-opacity="0" offset="1"/>
		</radialGradient>
		<path id="path4602" d="m249.38 924.36c0.007 67.038-54.333 121.39-121.37 121.4-67.036 0-121.39-54.38-121.39-121.41v-0.024c-0.01-67.05 54.33-121.4 121.37-121.4 67.038-0.006 121.39 54.333 121.4 121.37-0.01 0.01-0.01 0.01-0.01 0.02z" fill="url(#path4602_1_)"/>
			<radialGradient id="path4630_1_" gradientUnits="userSpaceOnUse" cy="1488.4" cx="1364.2" gradientTransform="matrix(-.0466 .0652 .4602 .3287 -588.35 280.16)" r="214.64">
			<stop stop-color="#626463" offset="0"/>
			<stop stop-color="#626463" stop-opacity="0" offset="1"/>
		</radialGradient>
		<path id="path4630" d="m249.38 924.36c0.007 67.038-54.333 121.39-121.37 121.4-67.036 0-121.39-54.38-121.39-121.41v-0.024c-0.01-67.05 54.33-121.4 121.37-121.4 67.038-0.006 121.39 54.333 121.4 121.37-0.01 0.01-0.01 0.01-0.01 0.02z" fill="url(#path4630_1_)"/>
	</g>
	<g id="g4800">
		<path id="path3768" stroke="#000" d="m237.89 924.36c0.006 60.692-49.19 109.9-109.88 109.9-60.692 0.006-109.9-49.19-109.9-109.88v-0.021c-0.006-60.692 49.19-109.9 109.88-109.9s109.9 49.19 109.9 109.88v-0.02z"/>
		<g id="g4785">
				<radialGradient id="path3874_1_" gradientUnits="userSpaceOnUse" cy="833.61" cx="196.71" gradientTransform="matrix(.7494 0 0 -.7494 -19.415 1549.1)" r="87.547">
				<stop stop-color="#EA1117" offset="0"/>
				<stop stop-color="#CD0D14" offset=".3695"/>
				<stop stop-color="#C10914" stop-opacity="0" offset="1"/>
			</radialGradient>
			<path id="path3874" opacity=".3805" d="m193.05 924.36c0 35.925-29.123 65.047-65.047 65.047s-65.047-29.123-65.047-65.047 29.122-65.04 65.047-65.04 65.05 29.12 65.05 65.04z" enable-background="new    " fill="url(#path3874_1_)"/>
				<radialGradient id="path3772_1_" gradientUnits="userSpaceOnUse" cy="923.05" cx="137.36" gradientTransform="matrix(1 0 0 -1 -9.3555 1847.4)" r="87.547">
				<stop stop-color="#EA1117" offset="0"/>
				<stop stop-color="#D3070E" offset=".3695"/>
				<stop stop-color="#C10914" stop-opacity="0" offset="1"/>
			</radialGradient>
			<path id="path3772" d="m214.8 924.36c0 47.937-38.861 86.797-86.797 86.797s-86.797-38.861-86.797-86.797c0-47.937 38.86-86.797 86.797-86.797s86.8 38.82 86.8 86.76z" fill="url(#path3772_1_)"/>
				<radialGradient id="path3860_1_" gradientUnits="userSpaceOnUse" cy="928.24" cx="126.88" gradientTransform="matrix(1 0 0 -1 1.125 1854.6)" r="44.125">
				<stop stop-color="#EA1117" offset="0"/>
				<stop stop-color="#EA1117" stop-opacity="0" offset="1"/>
			</radialGradient>
				<path id="path3860" stroke-linejoin="round" d="m171.38 926.36c0 23.955-19.42 43.375-43.375 43.375s-43.375-19.42-43.375-43.375c0-23.955 19.42-43.375 43.375-43.375s43.38 19.43 43.38 43.38z" stroke-opacity="0" stroke="#EF1D00" stroke-linecap="round" stroke-width="1.5" fill="url(#path3860_1_)"/>
				<radialGradient id="path3796_1_" gradientUnits="userSpaceOnUse" cy="990.61" cx="455.06" gradientTransform="matrix(1.2737 0 0 -1.2737 -451.62 2186.1)" r="20.152">
				<stop stop-color="#F8EE46" offset="0"/>
				<stop stop-color="#D3321C" stop-opacity="0" offset="1"/>
			</radialGradient>
			<path id="path3796" d="m161.94 924.36c0.008 18.746-15.182 33.95-33.928 33.958s-33.95-15.182-33.958-33.929v-0.029c-0.008-18.746 15.182-33.95 33.928-33.958s33.95 15.182 33.958 33.929v0.03z" fill="url(#path3796_1_)"/>
			<path id="path3818" d="m131.54 924.36c0 1.953-1.583 3.536-3.536 3.536s-3.536-1.583-3.536-3.536 1.583-3.536 3.536-3.536c1.95 0.01 3.54 1.59 3.54 3.54z" fill="#F4F846"/>
		</g>
	</g>
</g>
</svg>
